<svg width="107" height="116" viewBox="0 0 107 116" fill="none" xmlns="http://www.w3.org/2000/svg">
<path d="M51.9871 64.9749L48.573 72.6802L47.8994 64.9749C47.1572 56.4223 44.8279 49.7113 36.8808 47.2257H7.62736L0 90H77.3812C85.2369 90 91.9508 84.4188 93.321 76.77L98.5848 47.2257H69.3199C60.5051 49.7113 55.7779 56.4223 51.9871 64.9749Z" fill="#F21CA0"/>
<path d="M55.0127 25.0364L58.4268 17.3312L59.1005 25.0364C59.8426 33.589 62.172 40.3 70.1076 42.7856H99.3725L107 0H29.6186C21.7629 0 15.049 5.58122 13.6788 13.23L8.41504 42.7743H37.6799C46.4948 40.3 51.2219 33.589 55.0127 25.0364ZM74.2981 18.0203C78.2374 17.0487 80.2926 14.1338 81.9369 10.4168L83.387 7.15164L83.6724 10.4168C83.9921 14.1338 85.0198 17.0374 88.6051 18.0203L91.7565 18.879L88.3082 19.7376C84.3689 20.7093 82.3137 23.6242 80.6694 27.3412L79.2193 30.6063L78.9339 27.3412C78.6142 23.6242 77.5865 20.7206 74.0012 19.7376L70.8498 18.879L74.2981 18.0203Z" fill="#F21CA0"/>
<path d="M11.1127 98.3934C13.4124 98.3934 15.1947 98.8934 16.4596 99.8934C17.7244 100.893 18.3569 102.295 18.3569 104.098C18.3569 105.541 17.9955 106.811 17.2727 107.91C16.5663 109.008 15.5479 109.861 14.2173 110.467C12.9032 111.074 11.3755 111.377 9.63427 111.377H6.65282L5.81506 115.607H0L3.44961 98.3934H11.1127ZM9.92995 106.902C10.7349 106.902 11.3591 106.705 11.8026 106.311C12.2461 105.902 12.4679 105.336 12.4679 104.615C12.4679 103.451 11.7451 102.869 10.2995 102.869H8.35298L7.53986 106.902H9.92995Z" fill="#F21CA0"/>
<path d="M21.5206 98.3934H27.3357L23.886 115.607H18.071L21.5206 98.3934Z" fill="#F21CA0"/>
<path d="M36.4921 116C34.7345 116 33.1822 115.68 31.8352 115.041C30.5046 114.385 29.4697 113.475 28.7305 112.311C28.0077 111.148 27.6464 109.811 27.6464 108.303C27.6464 106.303 28.1063 104.525 29.0262 102.967C29.9625 101.41 31.252 100.197 32.8947 99.3279C34.5538 98.4426 36.4346 98 38.5373 98C40.1964 98 41.6665 98.3033 42.9478 98.9098C44.2291 99.5 45.1819 100.344 45.8061 101.443L41.6173 104.713C40.8452 103.369 39.6953 102.697 38.1677 102.697C37.2642 102.697 36.4593 102.918 35.7529 103.361C35.0466 103.803 34.4963 104.426 34.102 105.23C33.7078 106.016 33.5107 106.918 33.5107 107.934C33.5107 108.951 33.831 109.77 34.4717 110.393C35.1287 111 35.9911 111.303 37.0589 111.303C38.5208 111.303 39.8021 110.639 40.9027 109.311L44.3277 112.582C43.3256 113.811 42.184 114.689 40.9027 115.213C39.6379 115.738 38.1677 116 36.4921 116Z" fill="#F21CA0"/>
<path d="M69.119 98.3934L65.7187 115.607H60.4211L61.9488 107.762L57.0947 114.057H54.5321L51.871 107.861L50.3187 115.607H45.0211L48.4707 98.3934H53.2016L56.9469 107.541L64.1664 98.3934H69.119Z" fill="#F21CA0"/>
<path d="M76.8093 102.77L76.415 104.787H83.7085L82.8707 108.967H75.5526L75.1091 111.23H83.7578L82.8707 115.607H68.5302L71.9798 98.3934H86L85.113 102.77H76.8093Z" fill="#F21CA0"/>
</svg>
