<svg width="44" height="44" viewBox="0 0 44 44" fill="none" xmlns="http://www.w3.org/2000/svg">
<circle cx="22" cy="22" r="22" fill="#F0793C"/>
<path d="M22.1045 23.879L23.9972 24.5L22.1045 25.121C19.9482 25.8288 19.0601 27.9347 18.494 30.6339L18 33L17.5032 30.6339C16.9371 27.9347 16.0518 25.8288 13.8927 25.121L12 24.5L13.8927 23.879C16.049 23.1712 16.9371 21.0653 17.5032 18.3661L18 16L18.4968 18.3661C19.0629 21.0653 19.9482 23.1712 22.1045 23.879Z" fill="#E6E7E9"/>
<path d="M31.8943 12.6347L32.9984 13L31.8943 13.3653C30.6364 13.7816 30.1184 15.0204 29.7882 16.6082L29.5 18L29.2102 16.6082C28.88 15.0204 28.3636 13.7816 27.1041 13.3653L26 13L27.1041 12.6347C28.3619 12.2184 28.88 10.9796 29.2102 9.39184L29.5 8L29.7898 9.39184C30.12 10.9796 30.6364 12.2184 31.8943 12.6347Z" fill="#E6E7E9"/>
</svg>
