<svg width="20" height="20" viewBox="0 0 20 20" fill="none" xmlns="http://www.w3.org/2000/svg">
<path d="M16.2502 9.99984C16.2502 9.80817 16.2419 9.62484 16.2252 9.43317L17.7752 8.25817C18.1085 8.00817 18.2002 7.5415 17.9919 7.17484L16.4335 4.48317C16.2252 4.1165 15.7752 3.9665 15.3919 4.13317L13.6002 4.8915C13.2919 4.67484 12.9669 4.48317 12.6252 4.32484L12.3835 2.39984C12.3335 1.98317 11.9752 1.6665 11.5585 1.6665H8.45021C8.02521 1.6665 7.66688 1.98317 7.61688 2.39984L7.37521 4.32484C7.03354 4.48317 6.70854 4.67484 6.40021 4.8915L4.60854 4.13317C4.22521 3.9665 3.77521 4.1165 3.56688 4.48317L2.00854 7.18317C1.80021 7.54984 1.89188 8.00817 2.22521 8.2665L3.77521 9.4415C3.75854 9.62484 3.75021 9.80817 3.75021 9.99984C3.75021 10.1915 3.75854 10.3748 3.77521 10.5665L2.22521 11.7415C1.89188 11.9915 1.80021 12.4582 2.00854 12.8248L3.56688 15.5165C3.77521 15.8832 4.22521 16.0332 4.60854 15.8665L6.40021 15.1082C6.70854 15.3248 7.03354 15.5165 7.37521 15.6748L7.61688 17.5998C7.66688 18.0165 8.02521 18.3332 8.44188 18.3332H11.5502C11.9669 18.3332 12.3252 18.0165 12.3752 17.5998L12.6169 15.6748C12.9585 15.5165 13.2835 15.3248 13.5919 15.1082L15.3835 15.8665C15.7669 16.0332 16.2169 15.8832 16.4252 15.5165L17.9835 12.8248C18.1919 12.4582 18.1002 11.9998 17.7669 11.7415L16.2169 10.5665C16.2419 10.3748 16.2502 10.1915 16.2502 9.99984ZM10.0335 12.9165C8.42521 12.9165 7.11688 11.6082 7.11688 9.99984C7.11688 8.3915 8.42521 7.08317 10.0335 7.08317C11.6419 7.08317 12.9502 8.3915 12.9502 9.99984C12.9502 11.6082 11.6419 12.9165 10.0335 12.9165Z" fill="#FEFEFE"/>
</svg>
