<svg width="16" height="16" viewBox="0 0 16 16" fill="none" xmlns="http://www.w3.org/2000/svg">
<path d="M8.00065 1.33325C4.31865 1.33325 1.33398 4.31792 1.33398 7.99992C1.33398 11.6819 4.31865 14.6666 8.00065 14.6666C11.6827 14.6666 14.6673 11.6819 14.6673 7.99992C14.6673 4.31792 11.6827 1.33325 8.00065 1.33325ZM11.8053 6.47125L7.13865 11.1379C7.00865 11.2679 6.83798 11.3333 6.66732 11.3333C6.49665 11.3333 6.32598 11.2679 6.19598 11.1379L4.19598 9.13792C3.93532 8.87725 3.93532 8.45592 4.19598 8.19525C4.45665 7.93459 4.87798 7.93459 5.13865 8.19525L6.66732 9.72392L10.8627 5.52859C11.1233 5.26792 11.5447 5.26792 11.8053 5.52859C12.066 5.78925 12.066 6.21059 11.8053 6.47125Z" fill="#EB499A"/>
</svg>
