<svg width="15" height="17" viewBox="0 0 15 17" fill="none" xmlns="http://www.w3.org/2000/svg">
<path d="M2.9 6.5925H4.49V11.5925C4.49 12.1425 4.94 12.5925 5.49 12.5925H9.49C10.04 12.5925 10.49 12.1425 10.49 11.5925V6.5925H12.08C12.97 6.5925 13.42 5.5125 12.79 4.8825L8.2 0.2925C7.81 -0.0975 7.18 -0.0975 6.79 0.2925L2.2 4.8825C1.57 5.5125 2.01 6.5925 2.9 6.5925ZM0.5 15.5925C0.5 16.1425 0.95 16.5925 1.5 16.5925H13.5C14.05 16.5925 14.5 16.1425 14.5 15.5925C14.5 15.0425 14.05 14.5925 13.5 14.5925H1.5C0.95 14.5925 0.5 15.0425 0.5 15.5925Z" fill="#FEFEFE"/>
</svg>
