<svg width="119" height="25" viewBox="0 0 119 25" fill="none" xmlns="http://www.w3.org/2000/svg">
<path d="M15.3768 0.546447C18.559 0.546447 21.0252 1.24089 22.7754 2.62978C24.5257 4.01867 25.4008 5.96539 25.4008 8.46994C25.4008 10.4736 24.9007 12.2382 23.9006 13.7637C22.9232 15.2892 21.5139 16.4731 19.6728 17.3156C17.8544 18.158 15.7405 18.5792 13.3311 18.5792H9.20564L8.04642 24.4536H0L4.7733 0.546447H15.3768ZM13.7403 12.3634C14.854 12.3634 15.7178 12.0902 16.3315 11.5437C16.9452 10.9745 17.2521 10.189 17.2521 9.18716C17.2521 7.57058 16.2519 6.7623 14.2517 6.7623H11.5582L10.4331 12.3634H13.7403Z" fill="#F21CA0"/>
<path d="M29.7785 0.546447H37.8249L33.0516 24.4536H25.0052L29.7785 0.546447Z" fill="#F21CA0"/>
<path d="M50.4949 25C48.0628 25 45.9148 24.556 44.051 23.668C42.2099 22.7573 40.7779 21.4936 39.755 19.8771C38.7549 18.2605 38.2548 16.4048 38.2548 14.3101C38.2548 11.5323 38.8913 9.06193 40.1642 6.89891C41.4598 4.73588 43.2441 3.051 45.5171 1.84426C47.8128 0.614753 50.4154 0 53.3248 0C55.6205 0 57.6549 0.42122 59.4278 1.26366C61.2008 2.08333 62.5191 3.25592 63.3828 4.78142L57.5867 9.32377C56.5184 7.45674 54.9273 6.52322 52.8134 6.52322C51.5632 6.52322 50.4495 6.8306 49.4721 7.44536C48.4947 8.06011 47.7332 8.92532 47.1877 10.041C46.6422 11.1339 46.3694 12.3862 46.3694 13.7978C46.3694 15.2095 46.8127 16.3479 47.6991 17.2131C48.6083 18.0556 49.8017 18.4768 51.2791 18.4768C53.3021 18.4768 55.075 17.5546 56.5979 15.7104L61.3371 20.2527C59.9506 21.9604 58.3709 23.1785 56.5979 23.9071C54.8477 24.6357 52.8134 25 50.4949 25Z" fill="#F21CA0"/>
<path d="M95.6415 0.546447L90.9364 24.4536H83.606L85.7198 13.5587L79.0031 22.3019H75.4573L71.775 13.6954L69.627 24.4536H62.2966L67.0699 0.546447H73.6161L78.7986 13.2514L88.7884 0.546447H95.6415Z" fill="#F21CA0"/>
<path d="M106.283 6.62568L105.737 9.42623H115.829L114.67 15.2322H104.544L103.93 18.3743H115.897L114.67 24.4536H94.8267L99.6 0.546447H119L117.773 6.62568H106.283Z" fill="#F21CA0"/>
</svg>
