<svg width="44" height="44" viewBox="0 0 44 44" fill="none" xmlns="http://www.w3.org/2000/svg">
<circle cx="22" cy="22" r="22" fill="#33CC8C"/>
<path d="M35.7886 21.2694L37.9968 22L35.7886 22.7306C33.2729 23.5633 32.2368 26.0408 31.5763 29.2163L31 32L30.4204 29.2163C29.7599 26.0408 28.7271 23.5633 26.2081 22.7306L24 22L26.2081 21.2694C28.7239 20.4367 29.7599 17.9592 30.4204 14.7837L31 12L31.5796 14.7837C32.2401 17.9592 33.2729 20.4367 35.7886 21.2694Z" fill="#E6E7E9"/>
<path d="M17.7886 21.2694L19.9968 22L17.7886 22.7306C15.2729 23.5633 14.2368 26.0408 13.5763 29.2163L13 32L12.4204 29.2163C11.7599 26.0408 10.7271 23.5633 8.20814 22.7306L6 22L8.20814 21.2694C10.7239 20.4367 11.7599 17.9592 12.4204 14.7837L13 12L13.5796 14.7837C14.2401 17.9592 15.2729 20.4367 17.7886 21.2694Z" fill="#E6E7E9"/>
</svg>
