<svg width="28" height="28" viewBox="0 0 28 28" fill="none" xmlns="http://www.w3.org/2000/svg">
<path d="M13.9997 2.33334C7.55967 2.33334 2.33301 7.56001 2.33301 14C2.33301 20.44 7.55967 25.6667 13.9997 25.6667C20.4397 25.6667 25.6663 20.44 25.6663 14C25.6663 7.56001 20.4397 2.33334 13.9997 2.33334ZM13.9997 23.3333C8.85468 23.3333 4.66634 19.145 4.66634 14C4.66634 8.85501 8.85468 4.66668 13.9997 4.66668C19.1447 4.66668 23.333 8.85501 23.333 14C23.333 19.145 19.1447 23.3333 13.9997 23.3333ZM18.5263 9.67168L11.6663 16.5317L9.47301 14.3383C9.01801 13.8833 8.28301 13.8833 7.82801 14.3383C7.37301 14.7933 7.37301 15.5283 7.82801 15.9833L10.8497 19.005C11.3047 19.46 12.0397 19.46 12.4947 19.005L20.183 11.3167C20.638 10.8617 20.638 10.1267 20.183 9.67168C19.728 9.21668 18.9813 9.21668 18.5263 9.67168Z" fill="#787B80"/>
</svg>
